<?xml version="1.0" encoding="UTF-8" standalone="no"?>
<svg
   xmlns:dc="http://purl.org/dc/elements/1.1/"
   xmlns:cc="http://creativecommons.org/ns#"
   xmlns:rdf="http://www.w3.org/1999/02/22-rdf-syntax-ns#"
   xmlns:svg="http://www.w3.org/2000/svg"
   xmlns="http://www.w3.org/2000/svg"
   xmlns:sodipodi="http://sodipodi.sourceforge.net/DTD/sodipodi-0.dtd"
   xmlns:inkscape="http://www.inkscape.org/namespaces/inkscape"
   viewBox="0 -57 512.00002 548.56286"
   version="1.1"
   id="svg38"
   sodipodi:docname="fiesta-logo.svg"
   width="512"
   height="548.56287"
   inkscape:version="1.0 (4035a4fb49, 2020-05-01)">
  <metadata
     id="metadata44">
    <rdf:RDF>
      <cc:Work
         rdf:about="">
        <dc:format>image/svg+xml</dc:format>
        <dc:type
           rdf:resource="http://purl.org/dc/dcmitype/StillImage" />
        <dc:title />
      </cc:Work>
    </rdf:RDF>
  </metadata>
  <defs
     id="defs42" />
  <sodipodi:namedview
     inkscape:document-rotation="0"
     pagecolor="#ffffff"
     bordercolor="#666666"
     borderopacity="1"
     objecttolerance="10"
     gridtolerance="10"
     guidetolerance="10"
     inkscape:pageopacity="0"
     inkscape:pageshadow="2"
     inkscape:window-width="1920"
     inkscape:window-height="1001"
     id="namedview40"
     showgrid="false"
     fit-margin-top="0"
     fit-margin-left="0"
     fit-margin-right="0"
     fit-margin-bottom="0"
     inkscape:zoom="0.57314319"
     inkscape:cx="-19.365916"
     inkscape:cy="458.40419"
     inkscape:window-x="-9"
     inkscape:window-y="-9"
     inkscape:window-maximized="1"
     inkscape:current-layer="svg38" />
  <g
     id="g921"
     transform="translate(3.9255136e-7,-57)">
    <path
       id="path2"
       fill="#ffaa00"
       d="M 366.23047,176.78125 H 145.76953 c 0,-23.40234 2.83594,-45.74219 7.9961,-66.17969 1.54296,-6.15234 3.30468,-12.140622 5.26171,-17.921872 C 177.67578,37.480469 214.11328,0 256,0 c 20.64453,0 39.96094,9.101562 56.46484,24.941406 17.00782,16.296875 31.05078,39.738282 40.50782,67.738282 1.95703,5.78125 3.71875,11.769532 5.26171,17.921872 5.16016,20.4375 7.9961,42.77735 7.9961,66.17969 z m 0,0" />
    <path
       id="path4"
       fill="#ff8b00"
       d="M 366.23047,176.78125 H 247.41016 c 77.11718,-26.94922 72.76171,-109.839844 65.05468,-151.839844 17.00782,16.296875 31.05078,39.738282 40.50782,67.738282 1.95703,5.78125 3.71875,11.769532 5.26172,17.921872 5.16015,20.4375 7.99609,42.77735 7.99609,66.17969 z m 0,0" />
    <path
       id="path6"
       fill="#2dc471"
       d="M 358.23437,110.60156 H 153.76562 c 1.54297,-6.15234 3.30469,-12.140622 5.26172,-17.921872 h 193.94532 c 1.95703,5.78125 3.71875,11.769532 5.26171,17.921872 z m 0,0" />
    <path
       id="path8"
       fill="#08af57"
       d="m 358.23437,110.60156 h -47.625 c 1.75,-5.90234 3.03907,-11.910154 3.95704,-17.921872 h 38.40625 c 1.95703,5.78125 3.71875,11.769532 5.26171,17.921872 z m 0,0" />
    <path
       id="path10"
       fill="#ffd02f"
       d="M 511.26953,171.83203 494.75391,210.75 c -5.22266,12.30078 -14.19532,22.35937 -25.33204,29.12109 -9.99218,6.07813 -21.73437,9.48828 -34.05859,9.48828 H 76.636719 c -12.324219,0 -24.066407,-3.41015 -34.058594,-9.48828 C 31.441406,233.10937 22.46875,223.05078 17.246094,210.75 L 0.730469,171.83203 c -2.59375,-6.13281 2.039062,-12.85156 8.859375,-12.85156 H 502.41016 c 6.82031,0 11.45312,6.71875 8.85937,12.85156 z m 0,0" />
    <path
       id="path12"
       fill="#ff4e61"
       d="M 125.20703,249.35937 H 76.636719 c -12.324219,0 -24.066407,-3.41015 -34.058594,-9.48828 l 39.023437,-78.89062 z m 0,0" />
    <path
       id="path14"
       fill="#ff4e61"
       d="m 212.40234,249.35937 -43.59765,-88.3789 -43.60156,88.3789 z m 0,0" />
    <path
       id="path16"
       fill="#ff4e61"
       d="M 299.59766,249.35937 256,160.98047 l -43.59766,88.3789 z m 0,0" />
    <path
       id="path18"
       fill="#ff4e61"
       d="m 386.79687,249.35937 -43.60156,-88.3789 -43.59765,88.3789 z m 0,0" />
    <path
       id="path20"
       fill="#ff4e61"
       d="m 469.42187,239.87109 c -9.99218,6.07813 -21.73437,9.48828 -34.05859,9.48828 h -48.57031 l 43.60547,-88.3789 z m 0,0" />
    <g
       id="g32"
       fill="#ffaa00">
      <path
         id="path22"
         d="m 82.121094,231.95312 h -0.109375 c -4.144531,0 -7.5,-3.35546 -7.5,-7.5 0,-4.14062 3.355469,-7.5 7.5,-7.5 h 0.109375 c 4.140625,0 7.5,3.35938 7.5,7.5 0,4.14454 -3.359375,7.5 -7.5,7.5 z m 0,0" />
      <path
         id="path24"
         d="M 168.85937,231.95312 H 168.75 c -4.14453,0 -7.5,-3.35546 -7.5,-7.5 0,-4.14062 3.35547,-7.5 7.5,-7.5 h 0.10937 c 4.14063,0 7.5,3.35938 7.5,7.5 0,4.14454 -3.35937,7.5 -7.5,7.5 z m 0,0" />
      <path
         id="path26"
         d="m 255.59766,231.95312 h -0.11329 c -4.14062,0 -7.5,-3.35546 -7.5,-7.5 0,-4.14062 3.35938,-7.5 7.5,-7.5 h 0.11329 c 4.14062,0 7.5,3.35938 7.5,7.5 0,4.14454 -3.35938,7.5 -7.5,7.5 z m 0,0" />
      <path
         id="path28"
         d="m 342.33203,231.95312 h -0.10937 c -4.14063,0 -7.5,-3.35546 -7.5,-7.5 0,-4.14062 3.35937,-7.5 7.5,-7.5 h 0.10937 c 4.14453,0 7.5,3.35938 7.5,7.5 0,4.14454 -3.35547,7.5 -7.5,7.5 z m 0,0" />
      <path
         id="path30"
         d="m 431.47266,231.95312 h -0.10938 c -4.14062,0 -7.5,-3.35546 -7.5,-7.5 0,-4.14062 3.35938,-7.5 7.5,-7.5 h 0.10938 c 4.14453,0 7.5,3.35938 7.5,7.5 0,4.14454 -3.35547,7.5 -7.5,7.5 z m 0,0" />
    </g>
  </g>
  <g
     id="g925"
     transform="matrix(1.2273507,0,0,1.2273494,-58.201779,3.9407417)">
    <path
       id="path34"
       fill="#bc6c35"
       d="m 217.36719,314.3125 c -15.35157,0 -28.60938,8.69141 -34.83985,21.28125 -6.96484,9.79297 -18.60156,16.21484 -31.78906,16.21484 -9.65234,0 -21.75391,-8.45703 -25.29687,-31.53125 -0.46485,-3.04687 -4.80469,-3.50781 -5.97266,-0.64453 -5.90625,14.4961 -7.36328,26.65625 -7.36328,32.17578 0,20.71094 15.76172,35.39453 36.22656,41.24219 25.4375,7.26172 57.46094,3.82031 71.08594,-0.0703 C 242.76562,386.3125 256,372.52344 256,351.8125 c 0,-20.71094 -17.29688,-37.5 -38.63281,-37.5 z m 0,0" />
    <path
       id="path36"
       fill="#af4d00"
       d="m 294.63281,314.3125 c 15.35156,0 28.60938,8.69141 34.83985,21.28125 6.96484,9.79297 18.60156,16.21484 31.78906,16.21484 9.65625,0 21.7539,-8.45703 25.29687,-31.53125 0.46485,-3.04687 4.80469,-3.50781 5.97266,-0.64453 5.90625,14.4961 7.36328,26.65625 7.36328,32.17578 0,20.71094 -15.76172,35.39453 -36.22656,41.24219 -25.4375,7.26172 -57.46094,3.82031 -71.08203,-0.0703 C 269.23437,386.3125 256,372.52344 256,351.8125 c 0,-20.71094 17.29687,-37.5 38.63281,-37.5 z m 0,0" />
  </g>
  <text
     xml:space="preserve"
     style="font-style:normal;font-variant:normal;font-weight:normal;font-stretch:normal;font-size:172.231px;line-height:1.25;font-family:a_AlternaSw;-inkscape-font-specification:'a_AlternaSw, Normal';font-variant-ligatures:normal;font-variant-caps:normal;font-variant-numeric:normal;font-variant-east-asian:normal;fill:#ffffff;fill-opacity:1;stroke:none;stroke-width:4.30579;"
     x="38.364594"
     y="352.99039"
     id="text929"><tspan
       sodipodi:role="line"
       id="tspan927"
       x="38.364594"
       y="352.99039"
       style="font-style:normal;font-variant:normal;font-weight:normal;font-stretch:normal;font-size:172.231px;font-family:a_AlternaSw;-inkscape-font-specification:'a_AlternaSw, Normal';font-variant-ligatures:normal;font-variant-caps:normal;font-variant-numeric:normal;font-variant-east-asian:normal;fill:#ffffff;fill-opacity:1;stroke-width:4.30579;">FIESTA</tspan></text>
</svg>
