<?xml version="1.0" encoding="UTF-8" standalone="no"?>
<svg
   xmlns:dc="http://purl.org/dc/elements/1.1/"
   xmlns:cc="http://creativecommons.org/ns#"
   xmlns:rdf="http://www.w3.org/1999/02/22-rdf-syntax-ns#"
   xmlns:svg="http://www.w3.org/2000/svg"
   xmlns="http://www.w3.org/2000/svg"
   xmlns:sodipodi="http://sodipodi.sourceforge.net/DTD/sodipodi-0.dtd"
   xmlns:inkscape="http://www.inkscape.org/namespaces/inkscape"
   inkscape:version="1.0 (4035a4fb49, 2020-05-01)"
   sodipodi:docname="heart (1).svg"
   xml:space="preserve"
   style="enable-background:new 0 0 412.735 412.735;"
   viewBox="0 0 412.735 412.735"
   y="0px"
   x="0px"
   id="Capa_1"
   version="1.1"><metadata
   id="metadata43"><rdf:RDF><cc:Work
       rdf:about=""><dc:format>image/svg+xml</dc:format><dc:type
         rdf:resource="http://purl.org/dc/dcmitype/StillImage" /></cc:Work></rdf:RDF></metadata><defs
   id="defs41">
	
</defs><sodipodi:namedview
   inkscape:current-layer="Capa_1"
   inkscape:window-maximized="1"
   inkscape:window-y="-9"
   inkscape:window-x="-9"
   inkscape:cy="206.36749"
   inkscape:cx="206.36749"
   inkscape:zoom="2.0109756"
   showgrid="false"
   id="namedview39"
   inkscape:window-height="1001"
   inkscape:window-width="1920"
   inkscape:pageshadow="2"
   inkscape:pageopacity="0"
   guidetolerance="10"
   gridtolerance="10"
   objecttolerance="10"
   borderopacity="1"
   bordercolor="#666666"
   pagecolor="#ffffff" />
<g
   style="fill:#ff5555;fill-opacity:1"
   id="g4">
		<path
   style="fill:#ff5555;fill-opacity:1"
   d="m 295.706,35.522 c 0,0 0,0 0,0 -34.43,-0.184 -67.161,14.937 -89.339,41.273 C 184.328,50.279 151.506,35.115 117.028,35.522 52.395,35.522 0,87.917 0,152.55 c 0,110.76 193.306,218.906 201.143,223.086 3.162,2.113 7.286,2.113 10.449,0 7.837,-4.18 201.143,-110.759 201.143,-223.086 0,-64.633 -52.396,-117.028 -117.029,-117.028 z M 206.367,354.738 C 176.065,336.975 20.898,242.412 20.898,152.55 c 0,-53.091 43.039,-96.131 96.131,-96.131 32.512,-0.427 62.938,15.972 80.457,43.363 3.557,4.905 10.418,5.998 15.323,2.44 0.937,-0.68 1.761,-1.503 2.44,-2.44 29.055,-44.435 88.631,-56.903 133.066,-27.848 27.202,17.787 43.575,48.114 43.521,80.615 10e-4,90.907 -155.167,184.948 -185.469,202.189 z"
   id="path2" />
	</g>
<g
   id="g8">
</g>
<g
   id="g10">
</g>
<g
   id="g12">
</g>
<g
   id="g14">
</g>
<g
   id="g16">
</g>
<g
   id="g18">
</g>
<g
   id="g20">
</g>
<g
   id="g22">
</g>
<g
   id="g24">
</g>
<g
   id="g26">
</g>
<g
   id="g28">
</g>
<g
   id="g30">
</g>
<g
   id="g32">
</g>
<g
   id="g34">
</g>
<g
   id="g36">
</g>
</svg>
